<?xml version="1.0" encoding="UTF-8"?>
<svg xmlns="http://www.w3.org/2000/svg" width="122" height="40" viewBox="0 0 122 40" fill="none">
  <path d="M26.3926 25.0378H15.252C11.0959 25.0378 7.71443 21.6265 7.71443 17.4337C7.71443 13.2409 11.0959 9.82961 15.252 9.82961C19.4081 9.82961 22.7896 13.2409 22.7896 17.4337V18.1968C22.7896 20.2009 24.4061 21.8296 26.3906 21.8296C28.3751 21.8296 29.9916 20.1988 29.9916 18.1968V17.3476C29.9672 13.3927 28.4239 9.67986 25.6444 6.89012C22.8628 4.10038 19.1723 2.56396 15.25 2.56396C7.1207 2.56396 0.508301 9.23474 0.508301 17.4358C0.508301 25.6368 7.1207 32.3076 15.25 32.3076H26.3906C28.3772 32.3076 29.9916 30.6768 29.9916 28.6747C29.9916 26.6727 28.3751 25.0419 26.3906 25.0419L26.3926 25.0378Z" fill="#2979FF"></path>
  <path d="M46.444 12.2137H44.0329V7.67436C44.0329 6.44102 43.5518 5.82435 42.5896 5.82435C42.1255 5.82435 41.7576 6.00707 41.4859 6.3725C41.2142 6.73793 41.0784 7.1776 41.0784 7.69149V12.2137H38.6333V3.75165H40.9426V4.71092C41.3727 3.94579 42.1085 3.56323 43.1499 3.56323C44.3159 3.56323 45.1309 4.08854 45.595 5.13916C45.9686 4.56817 46.3704 4.16277 46.8006 3.92295C47.2307 3.67172 47.7571 3.5461 48.3797 3.5461C49.3759 3.5461 50.1796 3.85443 50.7908 4.4711C51.4134 5.08777 51.7247 6.12697 51.7247 7.58871V12.2137H49.2627V7.6401C49.2627 6.46386 48.8382 5.87574 47.9892 5.87574C47.5251 5.87574 47.1515 6.05274 46.8685 6.40676C46.5855 6.74935 46.444 7.17189 46.444 7.67436V12.2137Z" fill="#9E9E9E"></path>
  <path d="M61.4753 7.69149C61.4753 8.05692 61.4413 8.41093 61.3734 8.75353H55.4984C55.5663 9.24458 55.804 9.63285 56.2115 9.91835C56.619 10.1924 57.0775 10.3295 57.5869 10.3295C58.4472 10.3295 59.2056 10.0668 59.8622 9.5415L60.9998 11.1346C60.1282 11.9796 58.9453 12.4022 57.451 12.4022C56.0927 12.4022 54.9777 12.0253 54.106 11.2716C53.2457 10.5065 52.8156 9.41588 52.8156 7.99982C52.8156 6.60661 53.257 5.52172 54.14 4.74518C55.0343 3.95721 56.104 3.56323 57.3492 3.56323C58.5717 3.56323 59.5622 3.92866 60.3206 4.65953C61.0904 5.37898 61.4753 6.38963 61.4753 7.69149ZM58.4868 6.01278C58.1699 5.72728 57.768 5.58453 57.2813 5.58453C56.7945 5.58453 56.387 5.72728 56.0587 6.01278C55.7304 6.28685 55.5437 6.69225 55.4984 7.22898H58.9453C58.9566 6.69225 58.8038 6.28685 58.4868 6.01278Z" fill="#9E9E9E"></path>
  <path d="M62.5935 0.240064H65.0386V7.07482L67.5177 3.76878H70.4043V3.92295L67.3309 7.74288L70.8797 12.0253V12.2137H67.9422L65.0386 8.49658V12.2137H62.5935V0.240064Z" fill="#9E9E9E"></path>
  <path d="M74.9608 3.56323C76.3645 3.56323 77.4229 3.83159 78.136 4.36832C78.8605 4.89363 79.2228 5.7387 79.2228 6.90352V12.2137H76.8795V10.6721H76.8286C76.6022 11.1859 76.2343 11.5971 75.7249 11.9054C75.2155 12.2137 74.6325 12.3679 73.976 12.3679C73.1157 12.3679 72.4025 12.1224 71.8365 11.6313C71.2705 11.1288 70.9875 10.4608 70.9875 9.62714C70.9875 8.74782 71.2988 8.06263 71.9214 7.57158C72.5553 7.08053 73.3704 6.835 74.3665 6.835C75.2382 6.835 75.9683 6.98346 76.5569 7.28037V7.10908C76.5569 6.10413 75.9117 5.60166 74.6212 5.60166C73.8515 5.60166 73.0025 5.76154 72.0743 6.08129L71.5818 4.21416C72.6685 3.7802 73.7949 3.56323 74.9608 3.56323ZM74.825 10.2952C75.2891 10.2952 75.6853 10.1696 76.0136 9.91835C76.3419 9.66711 76.5399 9.31881 76.6079 8.87344C76.0872 8.59936 75.5268 8.46232 74.9269 8.46232C74.5307 8.46232 74.2137 8.54226 73.976 8.70214C73.7496 8.86202 73.6364 9.09612 73.6364 9.40446C73.6364 9.68995 73.7496 9.91264 73.976 10.0725C74.2024 10.221 74.4854 10.2952 74.825 10.2952Z" fill="#9E9E9E"></path>
  <path d="M80.8662 3.76878H83.3283V4.69379C83.8603 3.94008 84.6074 3.56323 85.5696 3.56323C86.362 3.56323 87.0469 3.82017 87.6242 4.33406L86.6054 6.28685C86.2092 6.00136 85.7621 5.85861 85.264 5.85861C84.7093 5.85861 84.2452 6.03561 83.8716 6.38963C83.4981 6.73222 83.3113 7.20614 83.3113 7.81139V12.2137H80.8662V3.76878Z" fill="#9E9E9E"></path>
  <path d="M90.6568 3.73452H88.2117V12.2137H90.6568V3.73452ZM88.4664 2.53545C88.1834 2.28421 88.0419 1.94162 88.0419 1.50766C88.0419 1.07371 88.1834 0.731116 88.4664 0.47988C88.7607 0.228645 89.0833 0.103027 89.4343 0.103027C89.7852 0.103027 90.1021 0.228645 90.3851 0.47988C90.6794 0.731116 90.8266 1.07371 90.8266 1.50766C90.8266 1.94162 90.6794 2.28421 90.3851 2.53545C90.1021 2.78668 89.7852 2.9123 89.4343 2.9123C89.0833 2.9123 88.7607 2.78668 88.4664 2.53545Z" fill="#9E9E9E"></path>
  <path d="M45.4082 30.647C46.3082 30.647 47.0977 30.3558 47.7769 29.7734C48.4561 29.191 48.7957 28.3944 48.7957 27.3838C48.7957 26.2703 48.4646 25.4481 47.8024 24.9171C47.1402 24.3861 46.3421 24.1206 45.4082 24.1206C44.4574 24.1206 43.7018 24.4289 43.1414 25.0456C42.5981 25.6622 42.3264 26.4416 42.3264 27.3838C42.3264 28.343 42.6066 29.131 43.1669 29.7477C43.7272 30.3472 44.4744 30.647 45.4082 30.647ZM52.5398 39.306H48.8467V32.1887C47.8788 33.3877 46.5629 33.9873 44.8989 33.9873C43.0311 33.9873 41.5199 33.3963 40.3652 32.2144C39.2106 31.0153 38.6333 29.4051 38.6333 27.3838C38.6333 25.4139 39.2021 23.8294 40.3398 22.6303C41.4944 21.4141 42.9971 20.806 44.8479 20.806C46.6817 20.806 48.0741 21.4226 49.0249 22.656V21.0372H52.5398V39.306Z" fill="black"></path>
  <path d="M61.2287 33.9873C59.1402 33.9873 57.4677 33.3792 56.2112 32.163C54.9717 30.9296 54.3519 29.3366 54.3519 27.3838C54.3519 25.4481 54.9802 23.8551 56.2367 22.6046C57.5101 21.3541 59.1742 20.7289 61.2287 20.7289C63.3003 20.7289 64.9643 21.3541 66.2208 22.6046C67.4943 23.8551 68.131 25.4481 68.131 27.3838C68.131 29.3366 67.5028 30.9296 66.2463 32.163C65.0067 33.3792 63.3342 33.9873 61.2287 33.9873ZM61.2287 30.6984C62.2815 30.6984 63.071 30.3815 63.5974 29.7477C64.1408 29.0967 64.4124 28.3088 64.4124 27.3838C64.4124 26.493 64.1408 25.7136 63.5974 25.0456C63.0541 24.3775 62.2645 24.0435 61.2287 24.0435C60.2099 24.0435 59.4289 24.3775 58.8855 25.0456C58.3422 25.7136 58.0705 26.493 58.0705 27.3838C58.0705 28.2745 58.3337 29.0539 58.86 29.722C59.4034 30.3729 60.193 30.6984 61.2287 30.6984Z" fill="black"></path>
  <path d="M82.7244 33.7046H79.0313V26.9984C79.0313 25.0284 78.1653 24.0435 76.4334 24.0435C75.6013 24.0264 74.9137 24.3261 74.3703 24.9428C73.8439 25.5595 73.5807 26.296 73.5807 27.1525V33.7046H69.964V21.0115H73.4025V22.6303C74.4043 21.3113 75.7627 20.6689 77.4776 20.7032C80.9755 20.7032 82.7244 22.793 82.7244 26.9727V33.7046Z" fill="black"></path>
  <path d="M86.4356 17.5428H90.1032V21.0886H93.2869V24.172H90.0778V28.9511C90.0778 30.0817 90.5532 30.647 91.5041 30.647C92.1153 30.647 92.6247 30.5442 93.0323 30.3386L93.8727 33.422C93.0407 33.7475 92.1578 33.9359 91.2239 33.9873C89.7467 34.0558 88.5751 33.7046 87.7091 32.9338C86.8601 32.1458 86.4356 30.8183 86.4356 28.9511V24.172H84.1943V21.0886H86.4356V17.5428Z" fill="black"></path>
  <path d="M100.379 20.7289C102.484 20.7289 104.072 21.1314 105.142 21.9365C106.228 22.7245 106.772 23.9921 106.772 25.7393V33.7046H103.257V31.3921H103.181C102.841 32.163 102.289 32.7796 101.525 33.2421C100.761 33.7046 99.8865 33.9359 98.9016 33.9359C97.6112 33.9359 96.5414 33.5676 95.6924 32.831C94.8435 32.0773 94.419 31.0752 94.419 29.8248C94.419 28.5058 94.8859 27.478 95.8198 26.7414C96.7707 26.0048 97.9932 25.6365 99.4874 25.6365C100.795 25.6365 101.89 25.8592 102.773 26.3046V26.0477C102.773 24.5402 101.805 23.7865 99.8695 23.7865C98.7149 23.7865 97.4414 24.0264 96.049 24.506L95.3104 21.7053C96.9405 21.0544 98.63 20.7289 100.379 20.7289ZM100.175 30.8268C100.871 30.8268 101.466 30.6384 101.958 30.2616C102.45 29.8847 102.748 29.3623 102.849 28.6942C102.068 28.2831 101.228 28.0775 100.328 28.0775C99.7336 28.0775 99.2582 28.1974 98.9016 28.4373C98.562 28.6771 98.3922 29.0282 98.3922 29.4907C98.3922 29.919 98.562 30.253 98.9016 30.4928C99.2412 30.7155 99.6657 30.8268 100.175 30.8268Z" fill="black"></path>
  <path d="M109.237 15.7441H112.905V25.9963L116.623 21.0372H120.953V21.2685L116.343 26.9984L121.666 33.422V33.7046H117.26L112.905 28.1289V33.7046H109.237V15.7441Z" fill="black"></path>
</svg>
